<?xml version="1.0" standalone="no"?>
<!DOCTYPE svg PUBLIC "-//W3C//DTD SVG 20010904//EN"
 "http://www.w3.org/TR/2001/REC-SVG-20010904/DTD/svg10.dtd">
<svg version="1.0" xmlns="http://www.w3.org/2000/svg"
 width="1000.000000pt" height="1000.000000pt" viewBox="0 0 1000.000000 1000.000000"
 preserveAspectRatio="xMidYMid meet">
<metadata>
Created by potrace 1.16, written by Peter Selinger 2001-2019
</metadata>
<g transform="translate(0.000000,1000.000000) scale(0.100000,-0.100000)"
fill="#000000" stroke="none">
<path d="M4665 9844 c-407 -38 -668 -84 -975 -170 -1021 -288 -1926 -906
-2564 -1754 -187 -248 -318 -459 -455 -730 -276 -546 -435 -1088 -503 -1715
-18 -162 -18 -808 0 -970 68 -629 227 -1169 503 -1715 650 -1288 1853 -2227
3259 -2545 159 -36 391 -74 585 -97 150 -18 840 -18 990 0 643 75 1168 230
1705 503 924 469 1668 1210 2134 2129 281 553 439 1091 508 1725 18 162 18
808 0 970 -57 526 -181 1000 -387 1475 -61 143 -217 437 -311 590 -693 1122
-1801 1913 -3084 2199 -356 80 -573 103 -1005 106 -198 2 -378 1 -400 -1z
m135 -216 c13 -40 27 -77 31 -83 4 -5 12 -30 18 -55 18 -71 34 -124 41 -135 4
-5 10 -33 14 -62 4 -28 13 -64 21 -80 8 -15 15 -40 15 -55 0 -15 4 -29 10 -33
6 -4 6 -15 0 -31 -13 -33 -13 -161 0 -169 16 -10 12 -36 -17 -95 -32 -68 -35
-153 -6 -176 17 -13 17 -14 -4 -20 -20 -6 -28 -22 -24 -47 1 -5 -3 -26 -9 -49
-8 -27 -8 -49 -2 -68 7 -19 7 -31 0 -38 -8 -8 -6 -21 6 -46 41 -87 48 -118 31
-152 -8 -17 -21 -37 -30 -44 -17 -14 -20 -40 -5 -40 29 0 170 143 156 158 -3
2 -22 -5 -42 -17 -20 -12 -37 -21 -39 -19 -1 2 -12 32 -25 67 -17 47 -24 85
-24 140 0 134 35 165 130 117 71 -37 145 -111 178 -181 16 -33 33 -68 37 -77
8 -15 -1 -77 -22 -168 -5 -20 -26 -65 -47 -100 -22 -36 -45 -83 -52 -105 -21
-65 -46 -92 -108 -115 -88 -33 -146 -25 -212 30 -29 24 -69 52 -89 63 -31 16
-141 123 -141 137 0 12 -148 162 -170 173 -14 7 -27 21 -29 32 -3 20 -3 20 18
1 27 -24 40 -13 16 14 -26 29 -11 36 43 19 34 -10 84 -13 181 -11 122 3 133 2
127 -13 -8 -23 5 -17 59 25 24 19 43 40 41 45 -4 12 -48 8 -56 -5 -4 -6 -17
-10 -31 -10 -13 0 -69 -5 -124 -10 -80 -8 -114 -7 -170 5 -38 8 -97 19 -130
24 -33 5 -80 17 -105 26 -51 19 -160 16 -185 -5 -20 -16 -29 -7 -17 17 10 19
6 43 -8 43 -5 0 -12 -9 -15 -20 -4 -11 -17 -31 -30 -43 l-23 -22 31 -70 c18
-39 47 -94 65 -122 41 -64 151 -169 217 -207 28 -16 57 -37 66 -46 19 -19 133
-36 294 -45 55 -2 105 -5 110 -6 6 0 -1 -5 -15 -11 -14 -5 -68 -13 -120 -18
l-95 -7 125 -2 c141 -3 138 -18 -6 -28 -100 -7 -192 8 -306 51 -49 18 -88 32
-88 30 0 -11 113 -58 178 -75 92 -23 256 -25 357 -4 80 17 95 18 95 7 0 -12
-92 -39 -175 -52 -135 -22 -366 18 -499 87 -103 54 -229 182 -285 291 -43 84
-57 141 -67 272 -4 65 5 63 22 -5 l8 -30 5 40 6 40 13 -52 c8 -29 19 -56 24
-59 7 -5 9 2 5 18 -5 20 -1 28 19 39 66 35 42 75 -52 89 -33 5 -81 16 -109 24
-66 21 -98 20 -145 -3 -39 -19 -39 -19 -60 4 -15 16 -19 30 -15 47 4 16 1 31
-9 41 -29 28 -19 45 29 53 43 6 174 -1 223 -13 19 -4 22 -1 22 22 0 37 48 177
67 195 14 13 15 13 10 -5 -26 -87 -58 -207 -55 -210 2 -1 20 -5 41 -9 35 -6
37 -5 37 18 0 47 50 183 90 245 22 34 62 86 87 114 l47 52 -43 -40 c-75 -69
-150 -192 -186 -305 -22 -68 -25 -74 -36 -63 -12 12 17 117 53 189 38 78 174
226 262 284 72 48 84 60 34 34 -68 -35 -125 -80 -199 -156 -41 -43 -81 -78
-88 -78 -19 0 67 116 130 175 61 56 165 111 264 140 33 9 84 26 113 36 30 11
64 19 77 19 27 0 40 28 31 65 -4 15 4 44 22 82 16 32 39 85 52 118 27 70 40
88 40 57 0 -12 -19 -61 -41 -109 -38 -81 -42 -95 -44 -184 -4 -119 11 -152 17
-37 4 71 11 100 52 198 27 63 52 119 57 125 16 16 10 35 -11 35 -24 0 -25 8
-3 32 32 35 49 23 73 -54z m254 -443 c158 -95 261 -232 327 -437 62 -194 22
-436 -105 -630 -51 -79 -49 -55 3 50 78 155 99 255 85 389 l-8 78 -7 -110 c-6
-93 -33 -225 -44 -213 -1 1 1 26 5 53 5 28 8 93 8 145 l-1 95 -8 -70 c-4 -38
-14 -90 -22 -115 l-15 -45 0 35 c0 19 3 58 7 87 14 97 -2 179 -55 278 -70 133
-140 219 -225 279 -17 12 -25 27 -26 54 -1 20 -4 54 -7 75 -8 49 10 49 88 2z
m2647 -276 c14 -7 18 -16 14 -27 -7 -18 -32 -104 -40 -137 -4 -19 -38 -102
-56 -137 -5 -10 -9 -26 -9 -37 0 -10 -8 -29 -18 -42 -21 -27 -38 -69 -47 -116
-3 -17 -13 -37 -21 -44 -8 -6 -14 -20 -14 -30 0 -10 -8 -23 -18 -28 -29 -16
-102 -116 -102 -140 0 -14 -11 -28 -31 -39 -107 -58 -167 -120 -153 -157 5
-11 -1 -15 -21 -15 -21 0 -42 -15 -82 -54 -29 -30 -53 -61 -53 -70 0 -8 -9
-18 -20 -21 -12 -4 -20 -15 -20 -28 0 -11 -7 -46 -16 -77 -13 -48 -21 -60 -50
-74 -19 -9 -43 -16 -53 -16 -24 0 -46 -25 -31 -35 14 -9 167 4 200 17 24 9 24
10 6 24 -12 8 -29 11 -44 7 -21 -5 -24 -3 -19 13 3 10 12 43 21 72 16 59 47
105 114 170 27 27 50 41 59 38 8 -3 18 -6 23 -6 15 0 70 -126 80 -184 11 -63
0 -167 -23 -216 -25 -54 -120 -132 -222 -181 -55 -27 -116 -58 -135 -69 -63
-36 -164 -18 -229 41 -31 29 -39 48 -60 139 -5 19 -18 59 -30 88 -11 29 -21
67 -20 85 0 18 -2 64 -4 102 -3 39 -7 103 -10 143 -3 41 -10 79 -16 85 -14 14
-15 57 -1 57 6 0 10 -9 10 -20 0 -11 5 -20 10 -20 6 0 10 11 10 25 0 38 25 30
54 -17 14 -24 48 -59 77 -78 28 -19 65 -47 83 -61 17 -14 41 -32 54 -38 15 -8
21 -18 18 -27 -5 -12 4 -14 52 -12 45 2 58 7 60 21 3 14 -4 17 -33 17 -22 0
-38 6 -41 15 -4 8 -14 15 -24 15 -25 0 -195 124 -222 163 -12 17 -46 55 -75
84 -29 28 -53 56 -53 62 0 16 -60 81 -104 113 -21 15 -52 28 -68 28 -32 0 -38
16 -8 25 11 3 20 15 20 26 0 19 -15 26 -24 10 -3 -4 -23 -11 -44 -15 l-39 -6
-17 -77 c-38 -172 -30 -285 32 -457 34 -93 81 -151 209 -258 89 -74 96 -94 21
-59 l-43 20 40 -34 c47 -41 41 -44 -24 -11 -69 35 -150 113 -211 203 -67 99
-80 112 -45 46 36 -68 151 -192 229 -247 33 -24 91 -59 129 -77 107 -53 78
-71 -35 -22 -119 52 -215 131 -324 270 -114 144 -161 287 -151 458 4 55 13
126 21 157 15 54 113 237 128 238 4 0 6 -29 5 -65 -2 -61 4 -78 18 -55 3 6 23
10 45 10 26 0 40 5 44 16 7 18 -17 62 -44 81 -9 7 -37 40 -61 74 -24 33 -52
69 -62 79 -16 15 -63 31 -101 34 -5 1 -13 15 -18 31 -6 24 -4 33 12 47 12 10
20 28 20 47 0 65 44 48 168 -65 l85 -78 18 26 c22 29 132 103 169 113 l25 6
-21 -18 c-12 -10 -56 -43 -98 -73 -41 -30 -76 -58 -76 -62 0 -4 12 -19 26 -33
l26 -26 21 23 c32 34 87 74 148 108 30 16 50 30 46 30 -15 0 -112 -52 -160
-86 -83 -59 -96 -38 -14 24 108 84 198 111 415 125 41 3 77 8 80 12 7 7 -183
0 -275 -11 -54 -6 -74 7 -30 21 100 30 170 45 217 45 66 0 182 -23 259 -52 31
-11 81 -29 110 -39 30 -11 65 -26 78 -35 28 -18 44 -11 75 36 13 19 32 37 43
40 11 3 62 29 114 58 88 50 118 60 92 29 -6 -8 -54 -36 -106 -62 -71 -36 -100
-56 -112 -78 -8 -17 -31 -45 -49 -62 -19 -18 -34 -38 -34 -46 0 -7 23 12 50
43 47 53 100 88 253 166 44 23 47 26 32 43 -15 16 -15 18 2 22 10 3 19 5 21 6
2 0 12 -4 23 -10z m-5594 -271 c26 -18 54 -38 61 -45 7 -7 18 -13 24 -13 6 0
32 -19 59 -42 64 -58 77 -68 86 -68 5 0 29 -20 53 -45 24 -25 49 -45 55 -45
13 0 105 -85 105 -96 0 -18 83 -131 103 -140 12 -5 25 -22 29 -39 23 -100 32
-123 59 -152 16 -18 35 -33 44 -33 11 0 13 -7 8 -30 -3 -19 0 -37 8 -48 8 -9
23 -34 34 -55 10 -21 27 -43 37 -48 10 -5 18 -17 18 -27 0 -10 16 -25 38 -35
20 -10 52 -31 71 -46 32 -27 35 -32 33 -84 -1 -60 10 -80 28 -47 19 36 44 190
32 202 -8 8 -16 0 -29 -28 -9 -21 -18 -40 -19 -42 -1 -1 -25 14 -55 33 -53 36
-129 119 -129 141 0 6 -10 23 -21 38 -18 23 -20 31 -10 52 16 36 55 47 161 47
86 0 101 -3 158 -31 92 -46 110 -63 148 -142 24 -51 37 -95 44 -158 6 -48 18
-111 26 -140 9 -29 13 -63 10 -75 -10 -43 -65 -116 -105 -141 -37 -24 -48 -25
-160 -25 -66 0 -125 -2 -130 -6 -6 -3 -24 1 -42 10 -17 9 -38 14 -46 11 -8 -3
-24 1 -36 9 -12 8 -36 15 -55 15 -18 0 -56 7 -83 16 -29 10 -66 14 -89 11 -25
-3 -45 0 -57 9 -16 12 -15 13 17 14 l35 2 -35 15 c-33 14 -34 16 -15 29 10 8
25 14 32 14 24 0 76 31 170 101 50 38 94 69 96 69 3 0 7 -8 9 -17 2 -10 11 11
20 46 9 36 15 69 12 73 -10 16 -25 8 -37 -19 -14 -32 -64 -85 -121 -128 -97
-75 -113 -85 -146 -95 -20 -5 -62 -25 -94 -45 -32 -19 -67 -35 -78 -35 -50 0
-162 -73 -179 -116 -11 -30 -27 -31 -31 -2 -5 37 -29 34 -27 -4 1 -18 -1 -42
-4 -53 -5 -16 2 -25 36 -46 142 -89 220 -111 397 -114 142 -3 146 -2 210 27
36 16 109 59 163 95 54 36 101 62 105 58 4 -4 -22 -34 -58 -67 -75 -69 -54
-63 38 11 34 28 62 47 62 42 0 -5 -31 -38 -69 -73 -79 -73 -166 -120 -285
-154 -45 -12 -69 -23 -55 -23 37 -1 125 27 194 61 92 46 177 111 244 185 57
63 86 79 62 34 -37 -68 -174 -192 -265 -238 -238 -121 -424 -140 -623 -63
-104 40 -165 81 -246 166 -71 74 -92 118 -32 65 45 -39 52 -39 26 -2 -32 44
-25 46 21 7 44 -38 73 -49 44 -18 -13 15 -14 24 -5 50 22 62 -15 81 -80 41
-18 -11 -59 -29 -90 -40 -31 -11 -68 -25 -83 -31 -25 -9 -71 -69 -72 -93 -1
-5 -7 -10 -13 -9 -7 1 -22 2 -32 3 -11 0 -26 13 -33 28 -7 15 -22 29 -33 31
-61 11 -29 54 95 129 52 31 97 58 99 59 1 2 -9 27 -23 56 -26 54 -51 149 -44
169 2 6 21 -37 43 -95 22 -59 43 -110 48 -113 4 -3 16 2 26 11 10 9 23 16 29
16 16 0 16 -2 -13 59 -24 48 -48 133 -58 206 -3 17 -3 3 -1 -30 1 -33 14 -97
27 -143 26 -90 18 -120 -13 -49 -66 148 -64 314 4 542 4 11 -4 -2 -18 -30 -27
-57 -46 -138 -46 -195 0 -21 -5 -51 -11 -67 l-11 -28 -10 25 c-14 35 0 173 24
245 23 70 87 182 132 234 18 20 43 52 56 71 12 19 34 45 47 56 24 20 24 23 10
51 -9 16 -23 35 -31 42 -9 8 -16 25 -16 38 0 14 -9 65 -21 114 -11 49 -19 97
-17 106 7 27 48 -118 48 -167 0 -34 7 -51 33 -80 17 -21 54 -70 81 -109 27
-39 51 -69 53 -67 3 2 -11 26 -30 53 -66 93 -88 143 -113 250 -14 59 -26 121
-27 136 0 25 -3 28 -24 22 -28 -7 -40 14 -23 44 14 28 20 27 77 -11z m700
-234 c137 -34 265 -107 373 -214 107 -106 201 -340 199 -494 -1 -39 -3 -62 -6
-51 -2 11 -13 67 -24 125 -30 153 -77 247 -175 350 -43 45 -92 91 -109 102
-16 11 -2 -5 33 -37 72 -65 136 -155 169 -235 33 -80 28 -95 -8 -25 -38 72
-81 136 -105 156 -11 9 -8 -1 9 -28 21 -34 67 -137 67 -151 0 -15 -26 21 -55
76 -58 111 -99 150 -216 209 -112 57 -233 93 -311 93 -52 0 -88 13 -88 32 0 6
-18 27 -41 46 -25 21 -37 38 -31 44 30 30 201 31 319 2z m4816 -56 c45 -96 60
-184 55 -320 -4 -109 -9 -134 -41 -227 -48 -135 -71 -173 -164 -268 -91 -92
-172 -148 -278 -192 -116 -49 -112 -32 8 33 59 32 135 80 167 107 59 49 160
172 160 193 0 6 -11 -2 -23 -19 -59 -81 -187 -194 -187 -166 0 6 9 15 19 21
22 11 96 98 90 105 -3 2 -28 -14 -57 -35 -65 -50 -67 -34 -3 28 82 79 117 146
142 263 17 85 20 125 16 219 -3 63 -11 132 -18 154 -12 35 -11 40 6 55 11 9
29 35 40 58 11 24 25 43 32 43 6 0 23 -24 36 -52z m531 -946 c14 -26 44 -149
54 -220 4 -31 6 -33 36 -25 40 9 169 5 198 -7 28 -11 22 -12 -115 -12 l-109
-1 6 -30 c3 -16 6 -36 6 -44 0 -10 6 -12 22 -7 12 4 65 7 118 7 74 0 86 1 55
8 -22 4 -71 8 -108 8 -50 1 -68 4 -65 14 6 17 117 21 197 7 68 -12 160 -55
275 -128 37 -24 70 -41 73 -39 9 9 -102 86 -167 115 -60 27 -118 72 -92 72 26
0 161 -55 207 -85 64 -41 176 -161 216 -234 18 -31 40 -65 50 -76 10 -11 25
-37 34 -58 17 -41 26 -44 80 -21 28 11 44 13 64 5 14 -5 66 -12 116 -16 89 -6
127 -16 108 -28 -13 -8 -180 11 -202 23 -12 6 -30 3 -57 -9 -22 -10 -61 -21
-87 -25 -25 -4 -49 -11 -52 -17 -8 -12 1 -12 70 7 51 13 75 14 160 4 152 -17
159 -18 175 -22 9 -2 16 6 18 20 2 12 6 22 9 22 12 0 43 -33 43 -46 0 -13
-115 -103 -184 -143 -23 -13 -60 -39 -83 -57 -23 -19 -46 -34 -52 -34 -12 0
-71 -37 -111 -69 -14 -11 -32 -21 -41 -21 -9 0 -19 -7 -23 -15 -3 -9 -18 -15
-38 -15 -50 0 -138 -26 -162 -48 -19 -18 -28 -19 -96 -10 -65 8 -82 7 -118 -8
-23 -10 -42 -24 -42 -31 0 -16 -26 -17 -35 -3 -9 14 -120 2 -162 -17 -18 -8
-40 -13 -48 -10 -8 4 -20 -2 -27 -11 -7 -10 -34 -35 -60 -56 l-48 -38 -49 16
c-109 35 -107 10 4 -56 75 -46 115 -59 115 -39 0 5 -13 20 -30 33 l-30 23 55
42 c55 43 134 75 212 87 35 5 46 3 64 -15 18 -18 19 -27 13 -76 -10 -79 -57
-173 -116 -233 -27 -27 -52 -50 -56 -50 -3 0 -13 -7 -22 -15 -26 -24 -200 -31
-283 -11 -38 9 -87 16 -110 16 -87 1 -163 64 -192 162 -15 51 -9 85 30 158 7
14 18 51 24 82 8 34 24 71 42 94 16 20 29 42 29 49 0 7 7 15 15 19 9 3 24 25
34 50 11 24 24 47 30 51 16 9 61 101 61 123 0 11 7 26 17 33 15 13 16 11 9
-13 -7 -31 7 -38 22 -12 17 30 29 5 29 -58 0 -39 8 -84 21 -118 41 -113 54
-163 43 -170 -12 -7 14 -34 61 -63 21 -13 28 -14 37 -3 8 9 5 19 -14 36 -14
13 -25 31 -25 41 0 9 -6 22 -14 28 -24 20 -76 193 -81 272 -3 41 -9 91 -14
113 -5 21 -7 61 -4 90 6 61 -8 120 -42 170 -30 44 -31 50 -6 43 24 -6 46 7 37
22 -4 6 -16 11 -27 11 -11 0 -31 7 -44 16 -25 16 -26 15 -90 -41 -119 -105
-193 -221 -230 -365 -9 -36 -20 -71 -24 -80 -12 -23 4 -157 33 -268 14 -56 26
-106 26 -113 0 -21 -26 8 -45 51 -24 53 -29 45 -9 -14 24 -69 11 -66 -26 6
-47 93 -27 21 26 -91 24 -51 44 -97 44 -102 0 -39 -88 89 -124 180 -27 69 -46
177 -53 296 -5 93 -2 123 16 195 29 114 77 211 145 291 79 92 122 124 237 175
100 44 137 50 90 15 -13 -10 -21 -23 -17 -29 4 -6 -5 -19 -19 -28 -14 -9 -25
-20 -25 -25 0 -15 53 -10 72 8 10 9 18 11 18 5 0 -6 -7 -15 -16 -20 -21 -11
-10 -32 16 -32 33 0 44 35 31 101 -7 32 -11 89 -10 128 2 73 -8 98 -52 140
-18 16 -19 22 -8 43 15 28 30 39 46 33 7 -2 21 7 30 20 24 32 49 31 67 -3z
m-6386 -915 c145 -65 240 -134 330 -243 66 -80 50 -75 -40 13 -127 123 -251
192 -373 207 l-50 6 60 -18 c70 -21 196 -85 221 -113 12 -13 -7 -7 -62 20 -43
21 -88 41 -99 44 -64 18 -63 14 5 -23 81 -45 97 -57 88 -65 -3 -3 -36 10 -74
30 -65 34 -205 72 -224 60 -4 -3 -43 -10 -86 -15 -118 -16 -228 -58 -336 -127
-22 -14 -31 -15 -50 -6 -13 7 -42 15 -65 18 -24 4 -43 12 -43 18 0 24 117 118
194 156 133 66 206 81 376 78 143 -3 146 -3 228 -40z m180 -215 c15 -10 41
-24 59 -31 17 -7 64 -47 104 -88 40 -41 88 -87 107 -101 47 -36 62 -71 62
-145 0 -86 -19 -128 -75 -166 -25 -17 -48 -31 -51 -31 -3 0 -31 -22 -62 -50
-31 -27 -65 -50 -77 -50 -12 0 -30 -7 -41 -15 -10 -8 -28 -15 -39 -15 -11 0
-37 -11 -57 -25 -20 -14 -45 -25 -56 -25 -19 0 -105 -51 -116 -69 -4 -6 -17
-11 -29 -11 -22 0 -22 1 3 21 l25 21 -32 -6 c-42 -7 -43 7 -4 60 16 21 37 66
46 99 10 33 24 77 31 98 8 20 14 47 14 58 0 16 5 20 20 16 25 -6 25 -2 -1 62
-15 34 -27 51 -40 51 -15 0 -16 -4 -8 -35 6 -19 7 -41 2 -48 -4 -6 -6 -19 -5
-28 4 -26 -55 -221 -76 -249 -27 -37 -72 -126 -72 -144 0 -9 -11 -23 -25 -32
-37 -24 -76 -116 -78 -180 -1 -59 -4 -63 -22 -37 -8 11 -18 14 -31 9 -18 -7
-18 -8 3 -26 13 -10 27 -30 33 -45 10 -26 11 -26 78 -20 162 17 274 63 397
161 38 30 72 54 76 54 14 0 82 134 118 233 20 55 42 102 50 105 9 3 11 -2 8
-14 -10 -36 -19 -109 -13 -103 4 4 15 35 26 70 l18 64 1 -43 c2 -92 -71 -253
-163 -360 -60 -70 -59 -82 2 -15 111 122 172 270 197 476 10 80 27 55 24 -35
-5 -139 -49 -261 -153 -422 -113 -176 -293 -282 -509 -303 -41 -3 -90 -1 -125
6 -31 7 -78 17 -104 23 -59 12 -64 31 -6 22 30 -5 39 -4 34 4 -4 7 -16 12 -27
12 -10 0 -19 3 -19 8 0 4 18 6 39 4 21 -2 47 -2 57 0 16 4 15 7 -8 16 -20 8
-28 19 -28 36 0 13 -7 29 -16 37 -23 19 -44 2 -79 -62 -16 -30 -47 -81 -69
-112 -36 -53 -38 -62 -34 -113 4 -52 3 -56 -22 -69 -24 -12 -30 -12 -50 2 -18
13 -26 14 -42 4 -44 -28 -53 28 -19 114 21 52 42 99 56 128 14 27 14 27 -34
52 -51 25 -165 124 -144 125 6 0 24 -11 40 -23 35 -30 155 -109 158 -105 6 8
35 71 33 72 -40 14 -116 65 -171 116 -58 53 -66 58 -42 26 17 -22 64 -66 105
-99 73 -58 91 -77 72 -77 -18 0 -128 79 -169 121 -52 54 -123 177 -159 276
-15 40 -28 72 -30 70 -2 -2 3 -29 11 -61 15 -58 40 -113 81 -178 25 -39 33
-85 13 -72 -26 16 -111 163 -132 228 -19 61 -22 94 -22 241 0 94 2 181 5 195
4 22 0 27 -44 40 -26 9 -53 23 -60 31 -6 8 -48 48 -94 88 -46 40 -81 76 -78
78 9 9 48 -21 122 -91 38 -36 78 -66 89 -66 11 0 44 -11 73 -25 30 -14 64 -25
75 -25 13 1 0 10 -33 24 -82 34 -123 56 -140 75 -8 10 -50 48 -93 86 -71 62
-79 66 -90 51 -11 -15 -15 -15 -24 -4 -11 13 -16 33 -14 55 1 9 53 11 218 8
341 -7 384 -10 423 -30 65 -34 134 -54 151 -44 13 7 31 -4 77 -45 34 -30 69
-56 79 -59 52 -14 72 -16 78 -7 10 17 25 11 25 -9 0 -22 104 -81 142 -81 12 0
29 -6 37 -14 12 -10 28 -12 66 -6 90 14 112 6 169 -65 49 -60 40 4 -16 114
-36 71 -64 93 -56 45 3 -16 9 -37 13 -46 6 -16 0 -18 -56 -20 -76 -1 -73 -2
-125 11 -66 17 -141 58 -147 82 -15 58 132 176 244 197 87 16 138 14 167 -6z
m7147 -91 c-17 -114 -113 -289 -212 -382 -52 -50 -162 -128 -221 -158 -136
-68 -443 -77 -572 -17 l-35 16 40 -5 c22 -2 84 -10 138 -17 74 -9 116 -9 175
-1 81 12 217 51 209 59 -3 3 -29 -2 -58 -10 -29 -9 -92 -18 -139 -21 -90 -5
-82 1 35 27 l60 13 -67 3 c-79 3 -90 18 -20 27 158 20 216 51 335 175 77 80
104 116 142 192 44 89 69 123 85 113 5 -3 27 6 51 19 24 14 47 22 52 19 5 -3
6 -26 2 -52z m-220 -1041 c4 -6 25 -9 48 -8 l42 3 -3 -39 c-3 -34 -25 -91 -79
-203 -8 -19 -14 -35 -12 -37 2 -2 22 -13 44 -24 48 -24 121 -86 137 -115 10
-20 10 -21 -9 -7 -143 103 -183 128 -190 117 -12 -18 -33 -59 -33 -63 0 -2 6
-4 13 -4 17 0 119 -71 172 -118 22 -20 15 -11 -15 21 -30 32 -72 69 -92 84
-38 26 -48 43 -27 43 18 0 133 -86 168 -125 32 -37 100 -166 141 -268 12 -32
25 -56 27 -53 10 9 -27 114 -67 189 -23 43 -40 88 -38 100 2 18 13 7 55 -55
65 -97 90 -165 103 -275 10 -92 4 -279 -10 -325 -7 -23 -5 -30 13 -43 12 -8
30 -15 40 -15 11 0 31 -12 45 -28 15 -15 60 -56 100 -91 68 -60 84 -81 63 -81
-5 0 -47 36 -93 80 -46 45 -92 80 -103 80 -11 0 -44 11 -73 25 -30 14 -61 25
-70 24 -11 0 -8 -4 8 -11 104 -47 131 -63 176 -105 146 -138 153 -144 164
-122 15 27 30 14 30 -27 l0 -34 -87 -2 c-49 0 -95 0 -103 1 -18 1 -183 11
-290 17 -117 5 -131 8 -195 39 -34 16 -79 29 -104 30 -38 1 -52 8 -103 54 -62
56 -117 78 -150 60 -14 -7 -20 -6 -23 6 -3 8 -7 22 -10 30 -2 8 -12 15 -21 15
-9 0 -29 9 -44 20 -16 11 -43 23 -62 26 -18 4 -41 13 -50 21 -9 8 -22 12 -29
7 -7 -4 -41 -8 -76 -9 -63 -3 -64 -3 -98 38 -19 22 -35 44 -35 49 0 4 -7 8
-16 8 -12 0 -14 -7 -9 -32 13 -58 69 -163 89 -166 15 -3 18 1 14 20 -3 12 -9
32 -13 42 -8 18 -4 19 87 14 81 -4 105 -10 162 -37 60 -30 86 -53 86 -79 0
-21 -90 -101 -149 -132 -73 -39 -73 -39 -166 -47 -67 -5 -73 -4 -140 33 -50
27 -100 68 -177 146 -59 59 -112 116 -118 127 -16 31 -12 125 9 173 14 33 32
52 82 84 35 23 83 57 106 76 23 20 58 38 76 42 19 4 40 13 47 21 7 8 25 15 40
15 15 0 39 9 53 20 14 11 32 20 41 20 23 0 119 50 129 66 4 8 18 14 30 14 22
0 22 -1 -3 -21 l-25 -21 33 6 c42 7 43 -14 3 -60 -20 -23 -42 -72 -68 -153
-22 -69 -43 -121 -50 -121 -17 0 -16 -7 3 -63 12 -35 21 -47 36 -47 17 0 19 4
13 28 -4 15 -7 32 -6 37 10 90 62 261 90 296 10 13 35 56 55 94 21 39 48 81
61 95 41 45 69 111 69 168 0 55 5 62 26 37 7 -8 19 -15 26 -15 19 0 18 26 -1
34 -9 3 -21 20 -27 37 l-11 32 -77 -7 c-42 -3 -103 -13 -136 -21 -82 -21 -208
-85 -274 -140 -30 -25 -58 -45 -63 -45 -17 0 -87 -125 -127 -227 -53 -134 -64
-146 -58 -68 5 59 5 60 -9 25 -7 -19 -18 -44 -23 -55 -24 -53 -5 63 25 150 3
11 -1 7 -10 -8 -18 -31 -50 -153 -60 -229 -3 -27 -11 -48 -16 -48 -14 0 -6
158 10 219 35 132 167 343 265 422 111 90 222 137 374 159 70 11 90 9 178 -9
54 -12 107 -24 117 -27 26 -8 10 -25 -21 -22 -17 2 -26 -1 -24 -9 1 -9 -12
-13 -40 -13 l-43 -1 28 -20 c15 -11 27 -29 27 -39 0 -9 6 -23 14 -29 23 -19
50 2 76 56 12 26 43 75 67 107 42 55 45 63 46 122 0 53 3 64 21 73 28 13 43
13 51 1z m-6950 -828 c73 -25 52 -26 -85 -7 -60 9 -130 13 -165 9 -78 -8 -202
-40 -229 -61 -20 -14 -20 -15 -1 -9 90 32 245 56 245 39 0 -6 -21 -13 -47 -17
-45 -6 -148 -35 -141 -40 2 -1 37 0 78 4 79 7 120 -4 54 -15 -92 -14 -142 -27
-189 -49 -53 -25 -147 -112 -216 -198 -41 -51 -109 -180 -109 -205 0 -15 -37
-36 -50 -28 -5 3 -11 1 -15 -5 -6 -9 -69 -40 -83 -40 -10 0 9 112 29 167 47
125 151 268 240 328 24 16 57 40 73 53 90 72 216 103 411 98 108 -2 154 -8
200 -24z m75 -67 c36 -8 84 -14 108 -15 89 0 159 -59 188 -156 15 -53 13 -66
-26 -159 -5 -11 -15 -47 -21 -79 -8 -34 -23 -70 -36 -84 -13 -14 -23 -33 -23
-43 0 -10 -8 -23 -19 -28 -10 -6 -26 -29 -35 -53 -10 -23 -27 -54 -40 -68 -12
-15 -30 -53 -40 -84 -18 -56 -44 -81 -31 -28 l7 27 -26 -24 c-22 -21 -26 -22
-32 -7 -3 9 -4 25 -1 36 8 32 -27 163 -78 292 -4 11 -1 17 12 20 13 2 4 12
-35 36 -29 17 -57 32 -62 32 -19 0 -10 -30 15 -46 14 -9 25 -23 25 -32 0 -8 6
-23 13 -31 24 -28 78 -197 82 -257 3 -33 9 -81 14 -109 5 -27 9 -80 9 -116 -1
-69 23 -141 55 -168 22 -18 22 -34 0 -27 -22 7 -48 -8 -39 -22 3 -5 18 -12 33
-15 16 -3 38 -8 51 -12 19 -6 35 5 105 76 93 94 154 199 181 309 9 36 21 75
26 87 13 32 -4 162 -35 272 -34 118 -29 145 13 66 37 -71 39 -69 12 10 -23 68
-21 80 8 33 46 -75 65 -157 71 -303 6 -130 7 -135 14 -75 15 129 -17 278 -94
433 -55 109 -46 131 15 37 76 -119 110 -234 122 -420 5 -83 3 -119 -11 -175
-55 -222 -173 -372 -360 -459 -111 -52 -134 -57 -90 -20 l30 26 -30 -6 c-26
-5 -28 -4 -11 7 10 6 31 22 45 34 24 21 25 22 5 23 -11 0 -29 7 -40 15 -46 35
-82 -2 -63 -67 5 -18 10 -72 10 -120 2 -82 4 -91 32 -128 17 -22 35 -40 39
-40 5 0 2 -13 -7 -30 -11 -21 -23 -30 -40 -30 -15 0 -31 -10 -41 -25 -9 -14
-20 -25 -24 -25 -19 0 -46 63 -71 165 -20 82 -30 109 -40 105 -27 -10 -194 -4
-214 8 -16 9 5 11 104 12 123 0 123 0 117 23 -3 12 -6 29 -6 38 0 14 -12 16
-92 12 -63 -4 -114 0 -158 10 -36 9 -66 14 -68 12 -9 -9 84 -27 190 -37 64 -6
115 -14 113 -18 -9 -14 -111 -19 -179 -10 -79 12 -215 68 -302 127 -86 57 -94
59 -44 14 25 -23 86 -61 136 -85 98 -48 142 -83 88 -70 -122 29 -237 97 -314
185 -58 67 -156 205 -175 247 -16 34 -47 42 -86 21 -14 -7 -42 -7 -92 0 -40 6
-98 13 -129 16 -32 4 -58 11 -58 17 0 11 106 3 182 -13 36 -8 52 -7 75 4 15 8
44 18 63 21 43 9 92 27 87 33 -3 2 -35 -4 -73 -13 -60 -15 -82 -16 -196 -5
-70 6 -135 14 -143 17 -11 5 -15 -1 -15 -20 0 -14 -5 -26 -12 -26 -15 0 -48
30 -48 45 0 11 154 132 199 155 28 14 34 19 75 55 16 14 35 25 41 25 7 0 36
17 63 38 74 54 113 75 146 79 50 5 129 32 150 52 19 17 29 18 92 9 64 -8 77
-7 118 12 27 12 46 27 46 37 0 14 2 14 19 -1 17 -16 28 -17 86 -7 37 5 73 16
82 23 8 6 28 11 44 10 18 -1 29 3 29 10 1 7 23 30 49 51 48 36 95 48 117 28
13 -12 64 -23 64 -13 0 25 -143 112 -184 112 -19 -1 -17 -4 13 -31 18 -17 29
-34 25 -38 -83 -72 -131 -97 -208 -112 -28 -5 -59 -12 -68 -15 -9 -3 -25 3
-36 14 -26 26 -20 118 14 183 13 27 24 54 24 61 0 6 31 42 70 79 63 62 74 68
117 72 103 8 161 6 223 -8z m5992 -646 c72 -67 154 -114 257 -148 78 -25 117
-27 46 -2 -64 23 -141 63 -184 95 -46 34 -39 33 52 -9 101 -47 116 -44 38 7
-35 23 -59 44 -53 46 6 2 43 -12 82 -32 104 -51 161 -60 284 -46 119 13 231
47 311 95 57 35 98 44 110 25 3 -5 21 -10 38 -11 18 0 41 -4 52 -9 18 -7 16
-12 -31 -56 -66 -64 -140 -107 -250 -146 -77 -27 -106 -32 -219 -36 -165 -6
-218 5 -354 73 -110 56 -189 116 -260 198 -65 76 -69 97 -8 39 31 -29 72 -67
89 -83z m-464 -540 c26 -6 92 -33 147 -59 90 -44 108 -57 179 -135 77 -85 92
-112 43 -80 -19 12 -26 13 -29 4 -3 -10 -11 -8 -28 4 -14 9 -27 17 -30 17 -3
0 -5 -26 -5 -58 0 -52 2 -57 23 -60 13 -2 38 5 56 16 18 10 69 32 115 47 66
23 87 35 111 65 17 21 30 43 30 50 0 7 13 10 32 8 24 -2 36 -10 46 -30 7 -16
21 -28 31 -28 10 0 24 -6 30 -14 18 -21 -31 -66 -136 -125 -51 -29 -93 -54
-93 -56 0 -2 9 -19 20 -37 29 -49 66 -221 42 -192 -5 5 -24 55 -42 112 -19 57
-37 105 -41 108 -4 2 -14 -3 -22 -11 -9 -8 -23 -15 -31 -15 -20 0 -20 -3 5
-51 11 -23 29 -73 39 -112 10 -40 19 -60 19 -46 1 15 -10 63 -23 108 -13 45
-19 84 -14 87 13 8 48 -78 65 -163 14 -68 14 -84 -1 -172 -9 -53 -25 -127 -35
-166 -15 -53 -16 -65 -5 -50 21 28 43 108 54 195 6 44 16 80 26 90 15 14 16 6
11 -90 -8 -176 -66 -291 -252 -497 -50 -56 -51 -66 -4 -117 20 -21 24 -41 11
-50 -9 -5 -63 58 -85 100 -9 17 -24 37 -34 45 -16 13 -16 11 1 -16 42 -65 76
-138 76 -164 0 -14 9 -63 20 -109 11 -45 19 -88 17 -95 -1 -6 5 -10 13 -9 8 2
19 4 25 5 18 3 16 -39 -3 -57 -19 -16 -22 -15 -88 33 -38 27 -97 74 -132 103
-35 29 -72 56 -82 60 -11 4 -25 17 -32 28 -7 12 -37 37 -65 56 -29 19 -58 44
-63 54 -6 11 -17 20 -25 20 -7 0 -17 10 -21 23 -13 43 -79 136 -100 141 -22 6
-28 23 -49 134 -8 41 -51 92 -77 92 -17 0 -19 4 -14 26 8 29 -31 121 -63 151
-10 10 -21 27 -23 38 -2 11 -12 21 -23 24 -30 5 -109 70 -117 94 -3 12 -6 43
-7 70 -1 26 -5 47 -10 47 -11 0 -35 -71 -51 -149 -8 -39 -8 -57 0 -65 12 -12
40 17 40 41 0 7 7 13 15 13 8 0 15 -3 15 -8 0 -4 17 -16 37 -27 51 -28 87 -69
127 -145 55 -106 29 -127 -149 -123 -80 1 -96 5 -150 34 -90 48 -106 63 -141
142 -25 54 -36 98 -44 167 -6 52 -15 110 -21 129 -25 74 22 175 100 219 35 20
50 21 182 18 154 -4 196 -9 246 -32 17 -8 42 -14 55 -14 12 0 41 -7 63 -15 22
-8 66 -14 97 -15 60 0 88 -16 41 -22 l-28 -4 28 -12 c37 -15 27 -29 -30 -44
-25 -6 -74 -32 -107 -57 -111 -83 -142 -102 -159 -95 -10 3 -17 2 -17 -2 0 -5
-7 -30 -14 -56 -13 -40 -13 -48 0 -59 11 -9 16 -6 26 17 23 53 210 207 266
220 15 4 60 24 100 45 41 22 85 39 98 39 54 0 156 70 175 119 10 26 25 20 31
-13 1 -11 9 -21 17 -24 10 -3 12 2 9 23 -3 15 -2 41 2 56 8 28 6 31 -63 71
-40 23 -110 55 -157 72 -78 28 -97 30 -225 32 -77 0 -144 -2 -150 -6 -5 -3
-30 -14 -55 -23 -25 -9 -92 -46 -149 -82 -58 -35 -107 -62 -110 -60 -3 3 15
26 40 52 44 46 40 49 -16 8 -53 -38 -58 -40 -43 -15 19 32 125 109 188 138 30
13 91 35 135 48 44 12 70 23 58 23 -42 2 -179 -49 -257 -95 -43 -25 -116 -82
-162 -126 -84 -81 -113 -95 -77 -39 78 124 276 252 473 307 57 15 266 18 328
3z m-4253 -353 c69 -29 102 -63 120 -124 9 -31 28 -87 42 -123 17 -46 26 -91
28 -145 5 -119 22 -260 34 -282 14 -26 14 -52 1 -52 -5 0 -10 9 -10 20 0 11
-4 20 -10 20 -5 0 -10 -11 -10 -25 0 -34 -26 -32 -44 3 -18 35 -52 65 -154
137 -53 37 -81 64 -77 72 4 11 -8 13 -58 11 -47 -2 -62 -7 -62 -18 0 -10 12
-16 38 -18 20 -2 37 -7 37 -12 0 -5 10 -12 23 -15 77 -24 315 -235 363 -323
21 -40 95 -100 133 -108 54 -12 58 -15 34 -31 -13 -9 -23 -22 -23 -29 0 -17 1
-17 36 1 16 8 39 15 50 15 31 0 49 93 49 250 0 120 -2 129 -39 235 -47 131
-73 166 -210 278 -105 85 -113 110 -20 57 69 -39 63 -26 -11 25 -30 21 -53 40
-50 43 2 3 30 -8 61 -24 78 -39 184 -141 240 -230 57 -89 72 -92 18 -3 -72
119 -216 241 -359 305 -30 13 -55 28 -55 34 0 15 16 12 87 -16 122 -49 215
-121 321 -248 131 -158 178 -292 169 -481 -8 -137 -16 -167 -80 -280 -59 -105
-55 -100 -63 -92 -4 3 -2 19 4 36 9 25 8 29 -5 24 -11 -5 -14 -1 -10 13 3 10
9 30 13 44 6 24 6 24 -13 8 -11 -10 -35 -18 -56 -18 -57 0 -50 -34 24 -117 33
-37 68 -79 77 -93 27 -41 65 -61 121 -64 8 -1 19 -14 24 -29 7 -23 5 -33 -12
-51 -12 -12 -21 -35 -21 -50 0 -27 -2 -28 -31 -22 -18 3 -55 26 -83 50 -28 24
-70 60 -93 80 -40 35 -42 36 -52 17 -18 -32 -191 -139 -191 -118 0 3 35 30 78
61 128 91 119 80 83 116 -23 23 -32 28 -36 18 -8 -21 -95 -85 -168 -124 -34
-18 -58 -34 -53 -34 14 0 108 49 174 92 61 40 89 45 61 12 -22 -27 -130 -96
-178 -115 -60 -22 -218 -49 -300 -50 -65 -1 -66 -1 -26 -12 28 -7 63 -7 125 2
147 22 180 24 180 14 0 -15 -146 -55 -220 -61 -72 -5 -188 16 -279 49 -31 12
-81 30 -111 40 -30 11 -59 24 -64 29 -20 20 -46 9 -71 -30 -14 -22 -31 -40
-39 -40 -8 0 -56 -25 -107 -55 -51 -30 -97 -55 -102 -55 -30 0 84 78 148 101
24 9 45 25 54 43 9 16 31 45 49 65 66 71 52 74 -16 4 -38 -40 -75 -73 -81 -73
-6 0 -48 -23 -94 -50 -46 -28 -89 -50 -95 -50 -15 0 -15 -13 0 -28 18 -18 -5
-36 -36 -28 -26 6 -35 32 -18 51 5 6 15 37 22 70 7 33 24 83 37 111 12 28 23
58 23 67 0 9 5 19 10 22 6 3 10 15 10 26 0 11 11 40 25 65 14 25 25 54 25 65
0 12 7 35 16 52 9 18 20 37 23 44 3 6 28 36 55 67 27 31 51 70 55 87 5 26 18
38 71 68 68 39 113 90 108 125 -2 16 3 21 22 21 26 1 108 78 122 116 4 10 16
23 28 29 13 7 19 18 16 28 -2 9 3 42 12 72 18 57 26 64 107 95 31 13 37 18 25
26 -27 17 -220 -10 -220 -31 0 -8 48 -23 66 -19 20 3 26 -2 17 -13 -6 -7 -15
-35 -22 -61 -22 -90 -115 -207 -164 -207 -20 0 -32 12 -60 58 -57 95 -66 204
-30 333 11 37 132 143 198 174 31 14 59 25 63 25 4 0 32 16 62 35 61 39 115
46 175 21z m-419 -104 c-120 -63 -231 -156 -285 -240 -42 -67 -39 -74 7 -15
45 56 119 125 153 143 14 8 -3 -15 -38 -53 -87 -94 -100 -124 -24 -58 34 29
65 51 68 47 3 -3 -21 -34 -54 -69 -101 -105 -127 -175 -140 -375 -4 -68 -1
-119 13 -189 16 -87 16 -97 2 -107 -9 -7 -25 -31 -35 -54 -10 -23 -20 -42 -24
-42 -36 0 -95 167 -104 295 -8 106 2 184 40 300 36 110 59 151 132 232 96 108
230 199 342 233 64 20 48 5 -53 -48z m3750 -467 c19 -99 87 -244 144 -305 l41
-45 -31 48 c-33 49 -83 154 -95 197 -10 35 -2 25 35 -45 29 -54 70 -114 70
-103 0 2 -11 33 -25 68 -14 35 -25 68 -25 72 0 22 23 -8 51 -67 44 -88 107
-157 182 -196 34 -18 82 -43 107 -55 58 -30 147 -53 233 -61 59 -5 71 -10 85
-32 9 -14 32 -39 50 -55 24 -21 30 -32 22 -40 -6 -6 -59 -12 -118 -14 -92 -3
-120 0 -201 23 -116 32 -164 56 -266 132 -101 75 -141 120 -193 214 -64 117
-94 217 -98 334 -4 109 -1 102 32 -70z m-1068 39 c229 -58 368 -166 473 -367
32 -63 43 -98 55 -175 16 -117 17 -142 4 -142 -5 0 -10 9 -10 21 0 12 -8 23
-19 26 -11 3 -25 19 -32 36 -13 31 -13 31 -19 7 -3 -14 -16 -29 -28 -35 -30
-13 -39 -45 -17 -61 10 -7 38 -16 64 -19 25 -4 57 -10 71 -15 135 -45 138 -45
218 -7 20 10 26 8 42 -13 12 -16 17 -34 13 -48 -3 -14 1 -30 11 -41 21 -24 12
-47 -22 -54 -15 -3 -76 0 -137 7 -60 7 -113 12 -116 10 -4 -2 -9 -24 -11 -48
-6 -46 -64 -183 -74 -173 -3 3 6 43 21 89 49 152 47 138 22 138 -12 0 -31 3
-43 6 -19 5 -22 0 -27 -45 -3 -28 -20 -83 -36 -123 -17 -40 -24 -64 -16 -54
18 24 75 160 75 180 0 18 16 30 24 18 8 -14 -24 -122 -55 -184 -31 -61 -170
-208 -241 -255 -21 -14 -36 -28 -34 -31 10 -10 104 60 171 128 75 76 109 93
78 38 -36 -62 -155 -172 -223 -204 -97 -47 -341 -121 -360 -109 -15 9 -28 -35
-23 -73 4 -20 0 -39 -9 -50 -8 -9 -31 -57 -53 -105 -37 -86 -55 -113 -55 -84
0 18 56 145 73 166 7 9 12 53 13 115 1 93 -12 96 -15 3 -1 -34 -90 -257 -112
-281 -14 -15 -11 -23 11 -29 27 -7 25 -23 -5 -43 -20 -13 -28 -14 -40 -4 -8 7
-15 20 -15 29 0 10 -11 46 -25 81 -13 34 -27 79 -31 99 -5 35 -17 75 -34 116
-5 11 -12 43 -15 70 -4 28 -12 56 -18 63 -10 13 -28 92 -28 122 1 8 4 48 7 88
4 52 2 81 -6 98 -12 21 -9 32 19 94 28 60 32 78 26 116 -3 24 -10 44 -16 44
-17 0 -9 28 10 33 15 4 20 18 26 80 3 42 4 81 0 86 -3 6 -1 20 5 32 9 16 8 24
-2 37 -8 9 -23 42 -33 73 l-18 57 31 43 c32 43 40 69 23 69 -26 0 -161 -127
-161 -151 0 -13 40 -1 63 19 9 8 18 13 20 11 1 -2 11 -26 22 -54 27 -68 27
-245 0 -275 -23 -25 -39 -25 -96 3 -102 50 -217 194 -221 274 -4 86 30 196 86
278 14 20 32 58 41 85 20 59 58 94 125 114 78 23 135 10 209 -50 33 -27 80
-62 105 -77 25 -16 46 -35 46 -42 0 -8 14 -24 30 -37 17 -12 30 -27 30 -32 0
-6 15 -27 34 -46 19 -19 52 -54 72 -78 21 -24 50 -50 66 -58 15 -8 28 -21 28
-29 0 -13 -3 -13 -25 1 -28 19 -32 9 -9 -24 14 -20 14 -22 -3 -22 -10 0 -36 7
-58 15 -27 9 -83 14 -167 15 -105 0 -127 3 -130 15 -2 12 -16 4 -53 -29 -41
-36 -47 -46 -33 -51 9 -4 27 -1 40 6 28 16 45 19 176 25 74 4 117 1 155 -10
28 -8 80 -18 115 -22 35 -4 80 -15 100 -25 40 -21 186 -27 197 -9 3 6 13 10
21 10 11 0 12 -4 4 -19 -14 -27 -13 -41 3 -41 8 0 19 11 25 25 7 14 19 28 27
31 23 9 18 32 -20 112 -66 137 -138 223 -250 296 -33 21 -69 47 -80 56 -26 23
-165 50 -263 51 -89 1 -138 12 -109 24 9 4 41 11 70 15 51 7 51 8 -28 9 -98 3
-75 17 49 30 l81 8 -75 1 c-41 1 -111 -5 -155 -13 -97 -18 -95 -18 -95 -5 0
14 40 28 129 45 99 19 224 11 349 -21z m-879 -375 c-64 -129 -89 -225 -88
-338 l2 -86 9 80 c9 81 35 191 44 183 2 -3 0 -36 -6 -74 -5 -38 -10 -79 -10
-92 0 -41 17 -14 30 48 17 82 36 93 24 14 -5 -32 -8 -95 -7 -140 1 -75 5 -87
53 -185 59 -119 112 -193 187 -257 56 -49 69 -68 54 -86 -6 -7 -6 -17 -1 -26
15 -23 12 -80 -3 -80 -18 0 -122 64 -165 101 -48 42 -123 134 -155 189 -29 51
-92 235 -102 295 -7 47 8 185 30 271 19 72 65 173 108 236 52 78 51 55 -4 -53z"/>
<path d="M4515 9174 c-198 -41 -380 -173 -468 -342 -32 -61 -84 -210 -76 -215
2 -2 23 -8 46 -14 34 -8 45 -7 54 3 16 19 23 18 34 -8 6 -14 26 -28 48 -35 42
-14 171 -22 182 -11 4 4 -5 22 -19 41 -14 19 -26 39 -26 45 0 6 -9 16 -21 22
-16 9 -24 8 -38 -4 -16 -15 -51 -22 -51 -11 0 12 54 81 68 87 9 4 42 7 72 8
30 0 73 5 94 10 31 7 46 5 75 -11 20 -10 55 -19 78 -19 24 0 48 -6 57 -15 22
-22 26 -19 26 20 0 34 -19 83 -43 113 -6 8 -12 73 -14 150 -2 76 -6 151 -11
168 l-7 30 -60 -12z"/>
<path d="M4388 8642 c-16 -7 -16 -10 -3 -36 8 -15 15 -37 15 -47 0 -20 -15
-26 -25 -9 -8 13 -25 13 -25 0 0 -6 10 -14 23 -19 13 -5 29 -16 36 -25 7 -8
29 -18 47 -22 19 -3 42 -14 51 -23 22 -21 79 -40 94 -30 8 5 1 12 -22 22 -43
18 -67 44 -71 79 -4 30 -35 59 -54 51 -15 -5 -54 26 -54 44 0 6 17 14 38 16
l37 4 -35 1 c-19 0 -43 -2 -52 -6z"/>
<path d="M5160 8405 c0 -5 9 -25 20 -43 14 -23 20 -50 20 -93 0 -54 -6 -72
-58 -172 -31 -62 -62 -123 -67 -137 -6 -15 -32 -37 -62 -53 -59 -32 -80 -28
-148 27 -41 33 -120 86 -130 86 -17 0 0 -22 33 -41 20 -13 62 -42 93 -66 43
-34 64 -43 94 -43 46 0 116 39 131 72 6 13 35 73 66 133 56 111 65 146 59 245
-1 30 -51 112 -51 85z"/>
<path d="M6800 8710 c-82 -10 -151 -30 -221 -65 -64 -33 -169 -104 -169 -116
0 -5 9 -13 19 -19 11 -5 23 -19 26 -30 5 -14 14 -20 28 -18 17 2 22 -2 23 -22
1 -14 2 -31 3 -39 1 -15 136 -151 149 -151 13 0 42 -57 42 -82 0 -14 11 -35
25 -48 14 -13 25 -35 25 -49 1 -29 45 -89 57 -78 4 5 2 17 -5 28 -7 11 -16 40
-21 64 -7 37 -5 44 9 48 22 6 22 37 0 62 -10 11 -21 30 -25 43 -9 32 21 29 48
-5 49 -60 137 -143 137 -129 0 8 -22 34 -49 58 -26 24 -56 55 -66 70 -33 52
-118 87 -101 41 8 -20 -4 -63 -18 -63 -20 0 -41 63 -41 124 0 72 -15 87 -65
62 -18 -9 -35 -14 -38 -12 -9 10 45 53 81 65 34 11 41 10 70 -8 18 -11 62 -37
99 -58 44 -25 71 -47 77 -64 4 -14 27 -43 50 -64 22 -22 41 -47 41 -57 0 -22
13 -23 33 -3 15 14 37 96 37 136 0 11 13 32 29 47 16 15 46 53 67 86 72 109
92 141 93 147 2 10 -133 67 -195 82 -79 20 -175 26 -254 17z"/>
<path d="M7227 7633 c-2 -4 -8 -30 -12 -57 -9 -64 -57 -116 -140 -154 -33 -15
-93 -44 -133 -64 -76 -40 -109 -45 -160 -27 -28 9 -62 58 -62 87 0 25 -52 172
-60 172 -15 0 -12 -23 15 -106 14 -42 25 -85 25 -95 0 -36 48 -77 104 -90 49
-11 57 -10 92 9 43 23 102 51 179 85 49 22 132 94 153 133 19 35 18 140 -1
107z"/>
<path d="M2115 8183 c-37 -50 -39 -58 -6 -30 19 15 36 26 38 23 2 -2 -19 -33
-47 -68 -28 -34 -56 -72 -62 -83 -5 -11 3 -4 18 15 44 55 103 110 119 110 23
0 18 -13 -16 -46 -55 -52 -127 -172 -156 -257 -24 -72 -27 -98 -27 -212 -1
-117 2 -139 28 -217 15 -49 32 -88 37 -88 5 0 17 4 27 9 9 5 25 12 35 15 9 3
17 15 17 26 0 22 19 27 38 8 17 -17 75 4 157 58 62 41 78 47 134 50 35 2 69 8
77 15 7 6 26 8 43 4 17 -3 32 -2 36 4 3 6 14 11 24 11 10 0 25 7 32 17 13 15
10 15 -26 9 -47 -9 -43 -9 -77 -7 -16 0 -28 6 -28 12 0 30 -69 54 -85 29 -7
-12 -65 -13 -65 -2 0 14 32 38 70 52 32 13 56 25 130 67 l25 15 -30 -7 c-16
-4 -37 -13 -45 -20 -8 -8 -44 -27 -80 -43 -63 -29 -115 -71 -95 -79 52 -18
101 -72 55 -60 -11 3 -23 1 -26 -5 -7 -11 -44 -3 -91 19 -40 18 -57 13 -75
-23 -18 -37 -32 -27 -34 26 -1 38 2 48 28 70 17 14 55 49 85 78 33 32 63 52
77 52 13 0 44 11 70 25 26 14 58 25 72 25 52 0 10 54 -68 88 -44 19 -64 33
-72 54 -13 30 -87 125 -148 190 -21 22 -38 45 -38 50 0 10 -40 47 -50 47 -3 0
-14 -12 -25 -26z"/>
<path d="M3216 7793 c32 -25 54 -85 64 -174 6 -52 16 -112 22 -134 6 -22 10
-50 10 -63 -2 -33 -39 -100 -61 -112 -11 -5 -72 -10 -135 -10 -71 0 -116 -4
-116 -10 0 -13 220 -13 254 0 57 21 90 113 71 192 -8 29 -18 90 -24 136 -6 47
-18 95 -28 110 -10 15 -23 36 -29 46 -6 11 -17 22 -25 24 -9 2 -10 0 -3 -5z"/>
<path d="M8227 7023 c-12 -21 0 -86 18 -99 18 -13 18 -15 -5 -38 -24 -27 -25
-63 0 -166 22 -96 23 -119 5 -146 -12 -18 -16 -39 -12 -65 3 -21 0 -45 -7 -56
-10 -15 -13 -47 -7 -94 2 -20 21 3 21 26 0 32 32 96 45 91 24 -8 48 23 47 61
-1 21 3 45 8 53 16 24 26 -2 33 -78 4 -37 13 -87 22 -112 l15 -45 -4 40 c-19
169 -35 245 -53 245 -3 0 -18 -14 -33 -32 -32 -38 -52 -31 -43 15 6 35 19 59
52 96 28 32 27 55 -4 75 -14 9 -25 21 -25 26 0 13 33 13 46 1 5 -5 20 -11 34
-13 26 -3 28 -7 84 -137 24 -57 33 -88 27 -100 -5 -9 -5 -40 0 -71 5 -30 6
-67 3 -82 -11 -51 49 -28 114 45 21 22 44 37 57 37 21 0 162 48 247 84 l37 16
-35 62 c-111 197 -275 316 -484 354 -82 15 -196 18 -203 7z"/>
<path d="M7852 6108 c-5 -7 -16 -35 -25 -63 -8 -27 -24 -74 -35 -104 -23 -64
-17 -99 25 -144 38 -40 56 -48 115 -52 28 -2 79 -11 114 -20 80 -20 104 -21
184 -7 56 10 70 17 103 52 52 55 38 65 -16 13 -39 -38 -47 -42 -112 -48 -52
-5 -88 -3 -135 9 -36 10 -94 20 -130 23 -59 5 -68 10 -102 45 -46 47 -47 65
-9 161 29 72 48 147 38 147 -2 0 -9 -6 -15 -12z"/>
<path d="M798 5900 c-6 -41 3 -47 19 -13 12 25 12 19 8 -57 l-4 -85 17 79 c26
120 43 112 36 -16 -8 -130 11 -228 66 -343 52 -106 111 -179 203 -248 75 -57
97 -67 97 -46 0 6 9 22 20 36 15 19 17 30 10 43 -11 21 -8 24 32 34 22 5 34
21 61 79 33 70 52 127 43 127 -12 0 -117 -30 -127 -36 -6 -3 -8 -21 -4 -45 9
-51 -11 -52 -43 -2 -25 40 -25 38 1 176 11 58 21 84 40 101 13 13 34 44 45 70
12 25 28 49 37 52 12 5 13 9 4 20 -14 17 -79 18 -131 4 -29 -9 -44 -8 -67 4
-35 19 -158 55 -225 67 -27 4 -54 13 -60 19 -5 5 -24 10 -42 10 -28 0 -32 -4
-36 -30z"/>
<path d="M1415 5743 c-14 -32 -30 -65 -35 -73 -25 -39 -38 -68 -43 -97 l-6
-32 49 6 c42 5 50 3 50 -11 0 -9 -7 -16 -15 -16 -8 0 -15 -4 -15 -10 0 -16 30
-12 36 5 3 8 16 17 27 21 24 8 43 28 57 62 5 12 16 22 23 22 14 0 57 52 57 70
0 17 -19 11 -30 -11 -15 -28 -68 -49 -96 -39 -25 10 -64 -12 -64 -35 0 -14
-29 -35 -50 -35 -14 0 -2 48 20 80 28 40 79 150 70 150 -5 0 -20 -26 -35 -57z"/>
<path d="M8776 4715 c-18 -24 -25 -42 -21 -57 5 -20 1 -25 -27 -33 -27 -8 -39
-22 -70 -80 -20 -38 -39 -83 -43 -99 -8 -31 -49 -76 -70 -76 -7 0 -24 -18 -39
-40 -14 -22 -31 -40 -36 -40 -16 0 -60 -54 -60 -74 0 -18 4 -16 33 10 36 34
87 59 87 44 0 -6 11 -10 25 -10 18 0 31 9 43 30 16 29 47 48 59 37 3 -3 -2
-18 -10 -34 -66 -122 -95 -183 -87 -183 5 0 22 28 39 63 18 34 43 82 56 106
30 53 34 97 8 86 -43 -16 -73 -18 -73 -3 0 29 46 66 91 73 61 10 71 21 64 67
-6 31 -4 38 9 38 9 0 16 -4 16 -9 0 -5 11 -23 25 -39 24 -29 24 -31 11 -78 -8
-27 -20 -76 -25 -109 -8 -42 -19 -67 -37 -84 -15 -13 -34 -42 -44 -64 -10 -23
-29 -49 -41 -58 l-23 -17 27 -13 c23 -10 43 -10 99 -1 60 11 74 10 94 -3 24
-15 129 -48 225 -69 l56 -13 7 60 c17 165 -2 278 -70 416 -49 100 -133 196
-225 259 l-47 32 -26 -35z"/>
<path d="M7933 4207 c-15 -13 -58 -43 -94 -65 -69 -44 -89 -72 -89 -127 0 -56
14 -77 122 -187 141 -144 226 -184 315 -146 25 10 26 12 7 15 -11 2 -39 0 -63
-6 -36 -8 -48 -6 -89 16 -44 23 -231 205 -254 247 -12 22 -14 98 -3 115 4 7
33 29 64 48 74 47 131 92 131 104 0 15 -17 10 -47 -14z"/>
<path d="M1815 3548 c-9 -53 -31 -88 -56 -88 -24 0 -32 -16 -31 -59 1 -20 -3
-43 -8 -51 -16 -26 -31 4 -41 81 -5 41 -14 92 -19 114 -8 35 -9 32 -4 -20 10
-106 21 -169 33 -199 l12 -29 32 31 c40 39 60 42 51 7 -4 -15 -2 -25 5 -25 6
0 11 10 11 23 0 12 6 30 13 39 8 10 12 35 10 62 -2 24 1 47 7 51 12 8 13 92 1
99 -5 4 -12 -13 -16 -36z"/>
<path d="M1514 3531 c-18 -11 -45 -36 -60 -55 -20 -25 -40 -38 -64 -42 -37 -5
-147 -44 -218 -75 -23 -10 -50 -19 -60 -19 -9 0 -28 -9 -41 -19 l-24 -19 22
-33 22 -34 -6 33 c-4 17 -5 32 -2 32 2 0 21 -27 41 -60 21 -33 39 -60 42 -60
2 0 -9 27 -26 60 -56 111 -33 125 31 18 77 -132 220 -248 363 -298 92 -31 282
-48 304 -26 12 13 1 81 -15 93 -15 12 -15 14 0 31 26 28 19 118 -16 215 -9 25
-27 38 -27 18 0 -5 -16 -28 -35 -51 -19 -23 -35 -46 -35 -51 0 -5 11 -19 25
-31 14 -12 25 -25 25 -30 0 -11 -38 -10 -45 2 -3 6 -17 10 -31 10 -17 0 -28 8
-36 28 -6 15 -25 56 -41 92 -30 63 -36 102 -40 248 -2 47 -8 50 -53 23z"/>
<path d="M6703 2640 c-51 -21 -98 -134 -74 -178 6 -12 16 -66 21 -122 14 -128
53 -212 119 -248 22 -13 49 -22 58 -20 13 3 6 10 -24 26 -23 12 -49 22 -58 22
-8 0 -15 7 -15 16 0 9 -9 31 -20 48 -10 18 -24 66 -30 106 -6 41 -15 103 -20
136 -6 34 -10 73 -10 87 0 35 36 94 63 103 12 4 73 6 135 5 75 -2 112 1 112 8
0 6 -3 11 -7 12 -68 6 -233 6 -250 -1z"/>
<path d="M7900 2570 c-8 -5 -23 -11 -33 -14 -11 -4 -21 -15 -24 -27 -4 -14
-11 -18 -22 -13 -43 18 -63 15 -128 -21 -37 -21 -77 -46 -88 -56 -15 -13 -43
-20 -95 -24 -102 -8 -140 -13 -174 -23 -51 -14 -40 -28 24 -27 51 0 62 -3 75
-22 17 -24 68 -32 80 -13 7 12 55 13 55 2 0 -14 -33 -38 -75 -55 -22 -8 -65
-30 -95 -47 -41 -23 -47 -30 -26 -25 17 3 43 16 58 27 16 11 52 28 80 39 46
16 98 53 98 68 0 3 -18 14 -40 23 -22 9 -40 21 -40 26 0 5 19 13 43 16 32 5
55 2 87 -13 51 -23 74 -16 84 24 11 42 31 23 33 -30 2 -41 -1 -51 -25 -69 -15
-11 -52 -44 -83 -73 -37 -35 -64 -53 -81 -53 -14 0 -50 -13 -81 -30 -31 -16
-63 -27 -72 -24 -23 9 -19 -22 7 -46 12 -11 46 -31 75 -45 37 -17 56 -32 64
-51 11 -30 70 -109 135 -181 l40 -45 56 63 c73 85 105 137 140 232 52 142 53
304 5 446 -23 67 -32 76 -57 61z"/>
<path d="M3110 2646 c-30 -20 -59 -36 -65 -36 -5 0 -37 -13 -70 -29 -60 -29
-145 -105 -132 -118 4 -3 23 10 43 31 22 23 84 60 169 101 120 58 139 65 175
59 61 -10 77 -30 104 -124 34 -116 48 -150 53 -127 4 17 -33 153 -57 214 -14
33 -52 54 -112 59 -48 5 -58 2 -108 -30z"/>
<path d="M3240 1995 c0 -3 9 -22 20 -42 24 -45 26 -89 5 -97 -19 -7 -19 -30 0
-50 15 -15 35 -59 35 -77 0 -19 -43 14 -112 87 -39 41 -74 72 -77 69 -3 -3 23
-33 57 -66 34 -33 62 -64 62 -69 0 -10 62 -50 79 -50 6 0 11 13 11 28 0 16 7
37 15 48 14 19 15 19 21 -3 3 -13 10 -23 15 -23 5 0 9 -31 9 -69 0 -74 7 -86
50 -86 16 0 25 -6 25 -15 0 -8 -11 -16 -25 -18 -14 -2 -29 -8 -35 -13 -15 -14
-30 -11 -71 17 -21 15 -65 40 -96 56 -39 20 -60 37 -64 52 -3 13 -25 43 -50
67 -24 24 -44 49 -44 56 0 23 -20 14 -40 -19 -13 -21 -20 -51 -20 -81 0 -37
-5 -53 -23 -71 -28 -28 -137 -182 -137 -193 0 -5 -13 -24 -29 -43 -43 -52 -46
-74 -16 -88 40 -18 53 -14 25 8 -29 23 -12 26 28 6 56 -28 75 -26 25 3 -52 31
-70 48 -60 58 3 3 43 -11 89 -30 227 -97 462 -71 668 74 54 38 77 69 50 69 -6
0 -16 11 -22 25 -7 16 -19 25 -35 25 -20 0 -23 5 -23 36 0 30 -9 44 -62 95
-35 32 -71 62 -80 65 -18 5 -48 57 -48 83 0 9 -14 34 -30 55 -16 21 -27 43
-24 47 6 10 -44 79 -57 79 -5 0 -9 -2 -9 -5z"/>
<path d="M4945 2088 c-49 -17 -93 -56 -100 -87 -3 -16 -24 -59 -47 -96 -53
-88 -64 -118 -72 -190 -6 -52 -3 -67 17 -105 12 -24 29 -46 36 -48 13 -4 -24
78 -39 88 -15 10 12 117 46 180 19 36 49 95 66 131 24 51 40 72 68 88 60 33
89 28 166 -32 97 -74 127 -92 122 -74 -5 21 -177 147 -207 152 -14 2 -39 -1
-56 -7z"/>
<path d="M5330 1530 c0 -6 8 -13 18 -17 9 -3 32 -17 50 -30 24 -18 31 -30 27
-46 -7 -30 6 -47 41 -53 29 -5 64 -30 64 -46 0 -12 -45 -10 -109 6 -81 20
-146 27 -133 14 10 -10 86 -23 210 -34 67 -7 76 1 47 40 -17 22 -20 56 -6 56
6 0 13 -4 16 -10 3 -5 14 -10 23 -10 9 0 32 -23 50 -51 38 -58 56 -68 81 -45
10 9 23 16 29 16 17 0 15 -30 -3 -36 -8 -4 -15 -12 -15 -19 0 -27 -34 -38
-138 -47 -84 -6 -113 -5 -137 6 -16 8 -54 17 -82 21 -29 4 -55 11 -59 16 -3 5
-9 9 -15 9 -18 0 -9 -58 17 -106 25 -46 27 -59 30 -207 1 -86 5 -161 8 -166 8
-13 163 26 233 59 172 80 291 208 354 382 34 93 36 108 9 108 -11 0 -29 5 -40
12 -15 10 -22 9 -38 -5 -18 -16 -19 -16 -30 8 -16 34 -50 45 -152 51 -88 5
-144 23 -154 49 -3 8 -24 18 -46 21 -22 4 -46 14 -53 23 -7 9 -28 22 -48 29
-43 15 -49 15 -49 2z"/>
</g>
</svg>
